<svg xmlns="http://www.w3.org/2000/svg" xmlns:xlink="http://www.w3.org/1999/xlink"><symbol id="icon-close" viewBox="0 0 18 18">
  <polygon points="18,1.3 16.7,0 9,7.7 1.3,0 0,1.3 7.7,9 0,16.7 1.3,18 9,10.3 16.7,18 18,16.7 10.3,9 " fill="#ffffff"/>
</symbol><symbol id="icon-mobile-menu" viewBox="0 0 24 18">
  <rect y="16" width="24" height="2" fill="#ffffff"/>
  <rect y="8" width="24" height="2" fill="#ffffff"/>
  <rect width="24" height="2" fill="#ffffff"/>
</symbol><symbol id="icon-phone" viewBox="0 0 25.625 25.625">
	<path d="M22.079,17.835c-1.548-1.324-3.119-2.126-4.648-0.804l-0.913,0.799
		c-0.668,0.58-1.91,3.29-6.712-2.234C5.005,10.079,7.862,9.22,8.531,8.645l0.918-0.8c1.521-1.325,0.947-2.993-0.15-4.71l-0.662-1.04
		C7.535,0.382,6.335-0.743,4.81,0.58L3.986,1.3C3.312,1.791,1.428,3.387,0.971,6.419c-0.55,3.638,1.185,7.804,5.16,12.375
		c3.97,4.573,7.857,6.87,11.539,6.83c3.06-0.033,4.908-1.675,5.486-2.272l0.827-0.721c1.521-1.322,0.576-2.668-0.973-3.995
		L22.079,17.835z" fill="#ffffff"/>
</symbol><symbol id="icon-tick" viewBox="0 0 288.941 288.941">
	<path id="Check" d="M285.377,46.368c-4.74-4.704-12.439-4.704-17.179,0L96.309,217.114L20.734,142.61
		c-4.74-4.704-12.439-4.704-17.179,0s-4.74,12.319,0,17.011l84.2,82.997c4.692,4.644,12.499,4.644,17.191,0l180.43-179.239
		C290.129,58.687,290.129,51.06,285.377,46.368C280.637,41.664,290.129,51.06,285.377,46.368z" fill="#b7b7b7"/>
</symbol></svg>